HIERARCHY
ROOT Hips
{
    OFFSET 0.000000 0.000000 0.000000
    CHANNELS 6 Xposition Yposition Zposition Zrotation Xrotation Yrotation
    JOINT Spine
    {
        OFFSET -0.000000 7.472806 0.000000
        CHANNELS 3 Zrotation Xrotation Yrotation
        JOINT Spine1
        {
            OFFSET -0.000000 20.861324 0.000000
            CHANNELS 3 Zrotation Xrotation Yrotation
            JOINT Neck
            {
                OFFSET -0.000000 20.775652 1.888696
                CHANNELS 3 Zrotation Xrotation Yrotation
                JOINT Head
                {
                    OFFSET -0.000000 12.758449 -1.822636
                    CHANNELS 3 Zrotation Xrotation Yrotation
                    End Site
                    {
                        OFFSET -0.000000 22.782944 0.000000
                    }
                }
            }
            JOINT LeftShoulder
            {
                OFFSET 3.666378 18.154961 -0.070414
                CHANNELS 3 Zrotation Xrotation Yrotation
                JOINT LeftArm
                {
                    OFFSET 12.961472 0.000000 0.000000
                    CHANNELS 3 Zrotation Xrotation Yrotation
                    JOINT LeftForeArm
                    {
                        OFFSET 24.623642 0.000000 0.000000
                        CHANNELS 3 Zrotation Xrotation Yrotation
                        JOINT LeftHand
                        {
                            OFFSET 23.136553 0.000000 0.000000
                            CHANNELS 3 Zrotation Xrotation Yrotation
                            End Site
                            {
                                OFFSET 13.669766 0.000000 0.000000
                            }
                        }
                    }
                }
            }
            JOINT RightShoulder
            {
                OFFSET -3.623027 18.154961 -0.070414
                CHANNELS 3 Zrotation Xrotation Yrotation
                JOINT RightArm
                {
                    OFFSET -12.961472 0.000000 0.000000
                    CHANNELS 3 Zrotation Xrotation Yrotation
                    JOINT RightForeArm
                    {
                        OFFSET -24.623642 0.000000 0.000000
                        CHANNELS 3 Zrotation Xrotation Yrotation
                        JOINT RightHand
                        {
                            OFFSET -23.136553 0.000000 0.000000
                            CHANNELS 3 Zrotation Xrotation Yrotation
                            End Site
                            {
                                OFFSET -13.669766 0.000000 0.000000
                            }
                        }
                    }
                }
            }
        }
    }
    JOINT LeftUpLeg
    {
        OFFSET 9.113177 0.000000 0.000000
        CHANNELS 3 Zrotation Xrotation Yrotation
        JOINT LeftLeg
        {
            OFFSET -0.000000 -45.736031 0.000000
            CHANNELS 3 Zrotation Xrotation Yrotation
            JOINT LeftFoot
            {
                OFFSET -0.000000 -34.703285 0.000000
                CHANNELS 3 Zrotation Xrotation Yrotation
                JOINT LeftToeBase
                {
                    OFFSET -0.000000 -5.923565 13.669766
                    CHANNELS 3 Zrotation Xrotation Yrotation
                    End Site
                    {
                        OFFSET -0.000000 0.000000 3.645271
                    }
                }
            }
        }
    }
    JOINT RightUpLeg
    {
        OFFSET -9.113177 0.000000 0.000000
        CHANNELS 3 Zrotation Xrotation Yrotation
        JOINT RightLeg
        {
            OFFSET -0.000000 -45.736031 0.000000
            CHANNELS 3 Zrotation Xrotation Yrotation
            JOINT RightFoot
            {
                OFFSET -0.000000 -34.703285 0.000000
                CHANNELS 3 Zrotation Xrotation Yrotation
                JOINT RightToeBase
                {
                    OFFSET -0.000000 -5.923565 13.669766
                    CHANNELS 3 Zrotation Xrotation Yrotation
                    End Site
                    {
                        OFFSET -0.000000 0.000000 3.645271
                    }
                }
            }
        }
    }
}
MOTION
Frames:    4
Frame Time:    0.008333
-3.983100    87.478149    12.987229    1.119874    2.286385    88.897209    0.000000    0.000000    0.000000    0.000000    0.000000    0.000000    0.000000    0.000000    0.000000    0.000000    0.000000    0.000000    -8.837122    -13.289196    59.219826    -67.327110    -11.424500    -100.428116    0.000000    0.000000    0.000000    0.000000    0.000000    0.000000    -13.383372    -0.656843    -4.743265    10.539179    6.467392    -2.861633    0.000000    0.000000    0.000000    0.000000    0.000000    0.000000    0.834430    7.223955    2.985162    -4.685843    -1.198619    -1.878180    3.786059    -3.180886    4.047700    0.000000    0.000000    0.000000    -6.360850    9.015474    1.779246    6.353924    -3.957470    3.308117    0.378736    -2.737783    -7.618325    0.000000    0.000000    0.000000    
-3.981168    87.477722    12.987499    1.116618    2.286373    88.891350    0.177095    0.155211    -0.969116    0.088197    -0.160621    -0.968828    -1.764431    12.290556    -5.571540    2.412528    1.351328    -5.418218    17.663551    2.925889    2.348651    -22.281958    10.210163    0.506731    6.817769    -1.995633    -6.663676    -4.827127    -1.598565    0.003191    -13.652675    -1.165756    -3.004066    10.624044    6.525798    -2.463730    -4.844045    -4.983041    8.244821    13.169193    -4.409985    1.954852    0.833444    7.222712    2.997445    -4.686113    -1.199304    -1.878203    3.775622    -3.182409    4.047836    0.000000    0.000000    0.000000    -6.362031    9.013164    1.780008    6.353144    -3.956687    3.319295    0.372974    -2.740968    -7.620109    0.000000    0.000000    0.000000    
-3.977921    87.477013    12.988065    1.113729    2.282867    88.889847    0.174941    0.142493    -0.970002    0.098755    -0.143541    -0.969650    -1.771870    12.287834    -5.567227    2.407166    1.334284    -5.413756    17.657877    2.936532    2.348437    -22.270981    10.185974    0.493332    6.812263    -1.984477    -6.648967    -4.832294    -1.588459    -0.001073    -13.655890    -1.169705    -3.000594    10.633636    6.555145    -2.465986    -4.851873    -4.969361    8.257277    13.182164    -4.396244    1.943806    0.838856    7.225917    2.988764    -4.690890    -1.207831    -1.868390    3.804310    -3.175376    4.036504    0.000000    0.000000    0.000000    -6.353033    9.009321    1.769568    6.342543    -3.951812    3.308968    0.380774    -2.743841    -7.597189    0.000000    0.000000    0.000000    
-3.975984    87.476936    12.987383    1.108430    2.283014    88.886772    0.168470    0.124301    -0.964503    0.110865    -0.121453    -0.964271    -1.778936    12.275577    -5.574094    2.408189    1.358817    -5.420804    17.652582    2.932436    2.334605    -22.262991    10.168508    0.485732    6.809359    -1.974331    -6.640300    -4.833371    -1.579547    0.011936    -13.658943    -1.166613    -3.015286    10.639592    6.581008    -2.454720    -4.851133    -4.855105    8.313023    13.201842    -4.298029    1.780962    0.834801    7.223209    2.992560    -4.682607    -1.209460    -1.872977    3.776817    -3.181283    4.048587    0.000000    0.000000    0.000000    -6.351511    9.003384    1.770867    6.337016    -3.946891    3.318083    0.386576    -2.751698    -7.607589    0.000000    0.000000    0.000000    
